<?xml version="1.0" encoding="UTF-8" standalone="no"?>
<svg
   class="img-fluid"
   id="outputsvg"
   width="2652.675"
   height="2548.323"
   viewBox="0 0 26526.748 25483.228"
   version="1.1"
   sodipodi:docname="topaz.svg"
   inkscape:version="1.2.2 (732a01da63, 2022-12-09)"
   inkscape:export-filename="topaz.png"
   inkscape:export-xdpi="90"
   inkscape:export-ydpi="90"
   xmlns:inkscape="http://www.inkscape.org/namespaces/inkscape"
   xmlns:sodipodi="http://sodipodi.sourceforge.net/DTD/sodipodi-0.dtd"
   xmlns="http://www.w3.org/2000/svg"
   xmlns:svg="http://www.w3.org/2000/svg">
  <defs
     id="defs22">
    <rect
       x="-54.459206"
       y="529.25146"
       width="602.11938"
       height="140.36668"
       id="rect374" />
  </defs>
  <sodipodi:namedview
     id="namedview20"
     pagecolor="#ffffff"
     bordercolor="#999999"
     borderopacity="1"
     inkscape:showpageshadow="0"
     inkscape:pageopacity="0"
     inkscape:pagecheckerboard="0"
     inkscape:deskcolor="#d1d1d1"
     showgrid="false"
     inkscape:zoom="0.23046875"
     inkscape:cx="-1575.0508"
     inkscape:cy="2711.8644"
     inkscape:window-width="3840"
     inkscape:window-height="2126"
     inkscape:window-x="-11"
     inkscape:window-y="-11"
     inkscape:window-maximized="1"
     inkscape:current-layer="outputsvg" />
  <g
     id="g264"
     transform="matrix(-3.2208353,-0.59817873,0.59817873,-3.2208353,20035.201,19359.342)">
    <g
       id="liFWlxKhztyO01cVJpAR1r"
       fill="#8379c1">
      <g
         id="g3">
        <path
           id="pTFVE7IE3"
           d="M 3065,5109 C 3030,5099 449,3116 408,3069 368,3021 357,2963 374,2886 470,2473 954,461 961,449 c 15,-28 76,-76 111,-88 18,-5 339,-67 713,-136 374,-69 798,-148 943,-175 281,-54 314,-55 371,-12 44,32 1619,1795 1637,1832 9,19 17,57 17,85 0,47 -56,167 -732,1560 -787,1625 -758,1569 -847,1594 -45,13 -68,13 -109,0 z" />
      </g>
    </g>
    <g
       id="l6YPhuscTeYiApKfsx3JHt6"
       fill="#978ecb">
      <g
         id="g7">
        <path
           id="pfjkPW8uf"
           d="m 3126,4649 c -3,-13 -37,-332 -76,-709 -39,-377 -73,-694 -75,-705 -3,-11 -15,-25 -28,-31 -13,-6 -286,-212 -606,-459 -372,-286 -586,-457 -592,-472 -7,-19 -15,-24 -30,-20 -11,3 -255,135 -542,293 -287,159 -585,323 -662,365 -150,83 -164,84 -150,16 4,-18 133,-558 287,-1202 153,-643 284,-1192 290,-1219 13,-60 64,-119 121,-140 23,-9 422,-86 886,-172 l 843,-156 35,34 c 19,18 67,70 106,115 39,45 72,81 73,80 2,-1 10,-57 20,-125 19,-134 25,-142 77,-101 41,32 1610,1786 1630,1822 17,32 17,32 -5,36 -13,1 -84,-5 -158,-14 -114,-14 -138,-20 -153,-38 C 4256,1658 3014,282 3009,287 c -10,12 -91,592 -85,609 3,8 14,14 25,14 14,0 137,131 388,411 202,225 372,419 377,430 12,25 -7,21 371,69 288,37 322,44 339,63 44,52 53,32 -634,1447 -353,729 -646,1329 -651,1334 -4,5 -10,-2 -13,-15 z" />
      </g>
    </g>
    <g
       id="l6knckTHa35azZdqVUI4oMn"
       fill="#aca6d6">
      <g
         id="g11">
        <path
           id="p11vxOKgnH"
           d="m 2350,2749 c -331,-255 -598,-467 -602,-479 -6,-16 -14,-21 -29,-17 -11,3 -255,135 -542,293 -287,159 -585,323 -662,365 -150,83 -164,84 -150,16 4,-18 133,-558 287,-1202 153,-643 284,-1192 289,-1218 11,-50 54,-111 73,-104 6,3 231,158 499,346 482,336 488,340 513,325 34,-23 858,-176 902,-169 33,6 80,47 147,128 15,17 62,70 104,116 42,47 94,105 116,129 22,25 60,68 85,95 25,28 59,65 75,83 17,18 55,61 85,95 30,35 74,84 97,109 82,88 81,87 73,128 -3,21 -155,343 -335,716 -347,715 -344,709 -407,704 -14,-1 -274,-195 -618,-459 z" />
      </g>
    </g>
    <g
       id="l6vfceM2vnFFFp9Z4wKlbJP"
       fill="#6e61b6">
      <g
         id="g16">
        <path
           id="p1Gdh3sfKI"
           d="m 365,2971 c -3,-11 1,-48 9,-84 92,-395 580,-2426 586,-2437 14,-26 48,-52 60,-45 12,7 983,686 988,690 1,1 -25,116 -59,256 -33,140 -76,317 -94,394 -126,530 -118,502 -146,513 -21,7 -1049,570 -1286,703 -49,28 -52,29 -58,10 z" />
        <path
           id="pxHopPOFc"
           d="m 4543,1881 -111,-16 -74,-85 c -41,-47 -355,-398 -698,-780 -342,-382 -629,-705 -637,-717 -12,-18 -12,-36 3,-142 19,-133 25,-141 77,-100 22,17 1465,1621 1594,1772 22,27 43,57 46,68 5,17 0,19 -41,18 -26,-1 -97,-9 -159,-18 z" />
      </g>
    </g>
  </g>
  <text
     xml:space="preserve"
     transform="matrix(170.65207,0,0,170.65207,10377.707,-73005.117)"
     id="text372"
     style="font-style:normal;font-weight:normal;font-size:40px;line-height:1.25;font-family:sans-serif;white-space:pre;shape-inside:url(#rect374);display:inline;fill:#874da8;fill-opacity:1;stroke:none"><tspan
       x="-54.458984"
       y="565.64696"
       id="tspan327"><tspan
         style="font-family:Birdman;-inkscape-font-specification:Birdman"
         id="tspan325">Topaz</tspan></tspan></text>
</svg>
